<svg xmlns="http://www.w3.org/2000/svg" viewBox="0 0 720 720" width="720" height="720" font-family="monospace">
<rect width="100%" height="100%" fill="#0d1117"/>
<line x1="60" y1="360.0" x2="660" y2="360.0" stroke="#21262d" stroke-width="0.5"/>
<line x1="360.0" y1="60" x2="360.0" y2="660" stroke="#21262d" stroke-width="0.5"/>
<line x1="60" y1="360.0" x2="660" y2="360.0" stroke="#21262d" stroke-width="0.5"/>
<line x1="360.0" y1="60" x2="360.0" y2="660" stroke="#21262d" stroke-width="0.5"/>
<line x1="60" y1="360.0" x2="660" y2="360.0" stroke="#21262d" stroke-width="0.5"/>
<line x1="360.0" y1="60" x2="360.0" y2="660" stroke="#21262d" stroke-width="0.5"/>
<line x1="60" y1="360.0" x2="660" y2="360.0" stroke="#21262d" stroke-width="0.5"/>
<line x1="360.0" y1="60" x2="360.0" y2="660" stroke="#21262d" stroke-width="0.5"/>
<line x1="60.0" y1="360.0" x2="660.0" y2="360.0" stroke="#484f58" stroke-width="1"/>
<line x1="360.0" y1="660.0" x2="360.0" y2="60.0" stroke="#484f58" stroke-width="1"/>
<circle cx="360.0" cy="360.0" r="36.7009100501444" fill="#f0883e" stroke="#ffa657" stroke-width="2"/>
<circle cx="360.0" cy="360.0" r="3" fill="#fff"/>
<path d="M 561.7 286.6 L 558.4 286.6 L 555.3 286.6 L 552.3 286.6 L 549.4 286.5 L 546.6 286.5 L 543.9 286.4 L 541.2 286.4 L 538.7 286.3 L 536.3 286.2 L 533.9 286.1 L 531.6 286.0 L 529.4 285.9 L 527.3 285.8 L 525.2 285.7 L 523.2 285.6 L 521.2 285.4 L 519.4 285.3 L 517.6 285.1 L 515.8 284.9 L 514.1 284.7 L 512.4 284.6 L 510.8 284.4 L 509.3 284.1 L 507.8 283.9 L 506.3 283.7 L 504.9 283.5 L 503.6 283.2 L 502.2 283.0 L 500.9 282.7 L 499.7 282.4 L 498.5 282.1 L 497.3 281.9 L 496.2 281.6 L 495.0 281.2 L 494.0 280.9 L 492.9 280.6 L 491.9 280.3 L 490.9 279.9 L 490.0 279.6 L 489.0 279.2 L 488.1 278.8 L 487.2 278.4 L 486.4 278.0 L 485.6 277.6 L 484.8 277.2 L 484.0 276.8 L 483.2 276.4 L 482.5 275.9 L 481.7 275.5 L 481.0 275.0 L 480.3 274.5 L 479.7 274.1 L 479.0 273.6 L 478.4 273.1 L 477.8 272.6 L 477.2 272.1 L 476.6 271.5 L 476.0 271.0 L 475.5 270.5 L 474.9 269.9 L 474.4 269.4 L 473.9 268.8 L 473.4 268.2 L 472.9 267.6 L 472.4 267.0 L 471.9 266.4 L 471.5 265.8 L 471.0 265.2 L 470.6 264.5 L 470.1 263.9 L 469.7 263.2 L 469.3 262.6 L 468.9 261.9 L 468.5 261.2 L 468.1 260.5 L 467.7 259.8 L 467.4 259.1 L 467.0 258.4 L 466.6 257.7 L 466.3 256.9 L 465.9 256.2 L 465.6 255.4 L 465.2 254.7 L 464.9 253.9 L 464.6 253.1 L 464.2 252.3 L 463.9 251.5 L 463.6 250.7 L 463.3 249.9 L 463.0 249.1 L 462.6 248.2 L 462.3 247.4 L 462.0 246.5 L 461.7 245.7 L 461.4 244.8 L 461.1 243.9 L 460.8 243.0 L 460.5 242.1 L 460.2 241.2 L 459.9 240.3 L 459.6 239.3 L 459.3 238.4 L 459.1 237.4 L 458.8 236.5 L 458.5 235.5 L 458.2 234.5 L 457.9 233.5 L 457.6 232.5 L 457.3 231.5 L 457.0 230.5 L 456.7 229.5 L 456.4 228.5 L 456.1 227.4 L 455.8 226.4 L 455.5 225.3 L 455.1 224.2 L 454.8 223.2 L 454.5 222.1 L 454.2 221.0 L 453.9 219.9 L 453.6 218.8 L 453.2 217.6 L 452.9 216.5 L 452.6 215.3 L 452.2 214.2 L 451.9 213.0 L 451.5 211.9 L 451.2 210.7 L 450.8 209.5 L 450.5 208.3 L 450.1 207.1 L 449.7 205.9 L 449.3 204.6 L 449.0 203.4 L 448.6 202.1 L 448.2 200.9 L 447.8 199.6 L 447.4 198.4 L 447.0 197.1 L 446.5 195.8 L 446.1 194.5 L 445.7 193.2 L 445.3 191.8 L 444.8 190.5 L 444.4 189.2 L 443.9 187.8 L 443.4 186.5 L 443.0 185.1 L 442.5 183.7 L 442.0 182.3 L 441.5 180.9 L 441.0 179.5 L 440.5 178.1 L 440.0 176.7 L 439.4 175.3 L 438.9 173.8 L 438.3 172.4 L 437.8 170.9 L 437.2 169.5 L 436.6 168.0 L 436.1 166.5 L 435.5 165.0 L 434.9 163.5 L 434.2 162.0 L 433.6 160.4 L 433.0 158.9 L 432.3 157.4 L 431.7 155.8 L 431.0 154.3 L 430.4 152.7 L 429.7 151.1 L 429.0 149.5 L 428.3 147.9 L 427.5 146.3 L 426.8 144.7 L 426.1 143.1 L 425.3 141.4 L 424.5 139.8 L 423.7 138.1 L 423.0 136.5 L 422.1 134.8 L 421.3 133.1 L 420.5 131.4 L 419.7 129.7 L 418.8 128.0 L 417.9 126.3 L 417.0 124.6 L 416.1 122.8 L 415.2 121.1 L 414.3 119.3 L 413.4 117.6 L 412.4 115.8 L 411.4 114.0 L 410.4 112.2 L 409.5 110.4 L 408.4 108.6 L 407.4 106.8 L 406.4 104.9 L 405.3 103.1" fill="none" stroke="#58a6ff" stroke-width="2.5" stroke-linecap="round" stroke-linejoin="round"/>
<path d="M 561.7 286.6 L 558.4 286.6 L 555.3 286.6 L 552.3 286.6 L 549.4 286.5 L 546.6 286.5 L 543.9 286.4 L 541.2 286.4 L 538.7 286.3 L 536.3 286.2 L 533.9 286.1 L 531.6 286.0 L 529.4 285.9 L 527.3 285.8 L 525.2 285.7 L 523.2 285.6 L 521.2 285.4 L 519.4 285.3 L 517.6 285.1 L 515.8 284.9 L 514.1 284.7 L 512.4 284.6 L 510.8 284.4 L 509.3 284.1 L 507.8 283.9 L 506.3 283.7 L 504.9 283.5 L 503.6 283.2 L 502.2 283.0 L 500.9 282.7 L 499.7 282.4 L 498.5 282.1 L 497.3 281.9 L 496.2 281.6 L 495.0 281.2 L 494.0 280.9 L 492.9 280.6 L 491.9 280.3 L 490.9 279.9 L 490.0 279.6 L 489.0 279.2 L 488.1 278.8 L 487.2 278.4 L 486.4 278.0 L 485.6 277.6 L 484.8 277.2 L 484.0 276.8 L 483.2 276.4 L 482.5 275.9 L 481.7 275.5 L 481.0 275.0 L 480.3 274.5 L 479.7 274.1 L 479.0 273.6 L 478.4 273.1 L 477.8 272.6 L 477.2 272.1 L 476.6 271.5 L 476.0 271.0 L 475.5 270.5 L 474.9 269.9 L 474.4 269.4 L 473.9 268.8 L 473.4 268.2 L 472.9 267.6 L 472.4 267.0 L 471.9 266.4 L 471.5 265.8 L 471.0 265.2 L 470.6 264.5 L 470.1 263.9 L 469.7 263.2 L 469.3 262.6 L 468.9 261.9 L 468.5 261.2 L 468.1 260.5 L 467.7 259.8 L 467.4 259.1 L 467.0 258.4 L 466.6 257.7 L 466.3 256.9 L 465.9 256.2 L 465.6 255.4 L 465.2 254.7 L 464.9 253.9 L 464.6 253.1 L 464.2 252.3 L 463.9 251.5 L 463.6 250.7 L 463.3 249.9 L 463.0 249.1 L 462.6 248.2 L 462.3 247.4 L 462.0 246.5 L 461.7 245.7 L 461.4 244.8 L 461.1 243.9 L 460.8 243.0 L 460.5 242.1 L 460.2 241.2 L 459.9 240.3 L 459.6 239.3 L 459.3 238.4 L 459.1 237.4 L 458.8 236.5 L 458.5 235.5 L 458.2 234.5 L 457.9 233.5 L 457.6 232.5 L 457.3 231.5 L 457.0 230.5 L 456.7 229.5 L 456.4 228.5 L 456.1 227.4 L 455.8 226.4 L 455.5 225.3 L 455.1 224.2 L 454.8 223.2 L 454.5 222.1 L 454.2 221.0 L 453.9 219.9 L 453.6 218.8 L 453.2 217.6 L 452.9 216.5 L 452.6 215.3 L 452.2 214.2 L 451.9 213.0 L 451.5 211.9 L 451.2 210.7 L 450.8 209.5 L 450.5 208.3 L 450.1 207.1 L 449.7 205.9 L 449.3 204.6 L 449.0 203.4 L 448.6 202.1 L 448.2 200.9 L 447.8 199.6 L 447.4 198.4 L 447.0 197.1 L 446.5 195.8 L 446.1 194.5 L 445.7 193.2 L 445.3 191.8 L 444.8 190.5 L 444.4 189.2 L 443.9 187.8 L 443.4 186.5 L 443.0 185.1 L 442.5 183.7 L 442.0 182.3 L 441.5 180.9 L 441.0 179.5 L 440.5 178.1 L 440.0 176.7 L 439.4 175.3 L 438.9 173.8 L 438.3 172.4 L 437.8 170.9 L 437.2 169.5 L 436.6 168.0 L 436.1 166.5 L 435.5 165.0 L 434.9 163.5 L 434.2 162.0 L 433.6 160.4 L 433.0 158.9 L 432.3 157.4 L 431.7 155.8 L 431.0 154.3 L 430.4 152.7 L 429.7 151.1 L 429.0 149.5 L 428.3 147.9 L 427.5 146.3 L 426.8 144.7 L 426.1 143.1 L 425.3 141.4 L 424.5 139.8 L 423.7 138.1 L 423.0 136.5 L 422.1 134.8 L 421.3 133.1 L 420.5 131.4 L 419.7 129.7 L 418.8 128.0 L 417.9 126.3 L 417.0 124.6 L 416.1 122.8 L 415.2 121.1 L 414.3 119.3 L 413.4 117.6 L 412.4 115.8 L 411.4 114.0 L 410.4 112.2 L 409.5 110.4 L 408.4 108.6 L 407.4 106.8 L 406.4 104.9 L 405.3 103.1" fill="none" stroke="#3fb950" stroke-width="5.1" stroke-opacity="0.25" stroke-linecap="round" stroke-linejoin="round"/>
<line x1="561.6698432724139" y1="286.5981798997112" x2="585.7" y2="286.6" stroke="#f0883e" stroke-width="1.5" opacity="0.50" marker-end="url(#arrowhead)"/>
<line x1="521.2450901144857" y1="285.4119178137996" x2="545.3" y2="285.4" stroke="#f0883e" stroke-width="1.5" opacity="0.50" marker-end="url(#arrowhead)"/>
<line x1="497.29408108837714" y1="281.85313155606485" x2="521.7" y2="281.9" stroke="#f0883e" stroke-width="1.5" opacity="0.51" marker-end="url(#arrowhead)"/>
<line x1="482.46101772176365" y1="275.9218211265069" x2="507.3" y2="275.9" stroke="#f0883e" stroke-width="1.5" opacity="0.53" marker-end="url(#arrowhead)"/>
<line x1="472.88290350325804" y1="267.6179865251258" x2="498.4" y2="267.6" stroke="#f0883e" stroke-width="1.5" opacity="0.55" marker-end="url(#arrowhead)"/>
<line x1="466.2714974422402" y1="256.9416277519215" x2="492.7" y2="256.9" stroke="#f0883e" stroke-width="1.5" opacity="0.58" marker-end="url(#arrowhead)"/>
<line x1="461.12732249193874" y1="243.892744806894" x2="488.6" y2="243.9" stroke="#f0883e" stroke-width="1.5" opacity="0.62" marker-end="url(#arrowhead)"/>
<line x1="456.3743052121522" y1="228.47133769004333" x2="485.1" y2="228.5" stroke="#f0883e" stroke-width="1.5" opacity="0.66" marker-end="url(#arrowhead)"/>
<line x1="451.17206858379643" y1="210.67740640136952" x2="481.4" y2="210.7" stroke="#f0883e" stroke-width="1.5" opacity="0.71" marker-end="url(#arrowhead)"/>
<line x1="444.8105879057656" y1="190.51095094087248" x2="476.7" y2="190.5" stroke="#f0883e" stroke-width="1.5" opacity="0.76" marker-end="url(#arrowhead)"/>
<line x1="436.64558161909906" y1="167.97197130855236" x2="470.3" y2="168.0" stroke="#f0883e" stroke-width="1.5" opacity="0.82" marker-end="url(#arrowhead)"/>
<line x1="426.05469859148997" y1="143.06046750440893" x2="461.8" y2="143.1" stroke="#f0883e" stroke-width="1.5" opacity="0.89" marker-end="url(#arrowhead)"/>
<line x1="412.40404510788164" y1="115.77643952844241" x2="450.4" y2="115.8" stroke="#f0883e" stroke-width="1.5" opacity="0.97" marker-end="url(#arrowhead)"/>
<defs>
<marker id="arrowhead" markerWidth="8" markerHeight="6" refX="8" refY="3" orient="auto">
<polygon points="0 0, 8 3, 0 6" fill="#f0883e"/>
</marker>
<marker id="arrowhead-start" markerWidth="8" markerHeight="6" refX="0" refY="3" orient="auto">
<polygon points="8 0, 0 3, 8 6" fill="#3fb950"/>
</marker>
</defs>
<circle cx="561.7" cy="286.6" r="4" fill="#3fb950"/>
<text x="569.7" y="280.6" fill="#3fb950" font-size="10">20° (MA=1.0)</text>
<circle cx="405.3" cy="103.1" r="4" fill="#f0883e"/>
<text x="413.3" y="97.1" fill="#f0883e" font-size="10">80° (MA=3.5)</text>
<text x="570.0" y="360.0" fill="#f0883e" font-size="11" text-anchor="middle">F⃗ (input force direction)</text>
<text x="10" y="20" fill="#c9d1d9" font-size="13" font-weight="bold">Variable-MA Cam Profile | Quadratic MA: 1.0→3.5</text>
<text x="10" y="36" fill="#8b949e" font-size="10">Stroke: 20°–80° | Force direction: 0°</text>
</svg>