<svg xmlns="http://www.w3.org/2000/svg" viewBox="0 0 400 220" width="400" height="220" font-family="monospace">
<rect width="100%" height="100%" fill="#0d1117"/>
<line x1="40" y1="180" x2="360" y2="180" stroke="#484f58" stroke-width="1"/>
<line x1="40" y1="40" x2="40" y2="180" stroke="#484f58" stroke-width="1"/>
<path d="M 40.0 145.2 L 41.6 145.2 L 43.2 145.2 L 44.8 145.2 L 46.4 145.2 L 48.0 145.2 L 49.6 145.1 L 51.3 145.1 L 52.9 145.1 L 54.5 145.0 L 56.1 145.0 L 57.7 145.0 L 59.3 144.9 L 60.9 144.8 L 62.5 144.8 L 64.1 144.7 L 65.7 144.7 L 67.3 144.6 L 68.9 144.5 L 70.6 144.4 L 72.2 144.3 L 73.8 144.2 L 75.4 144.2 L 77.0 144.1 L 78.6 144.0 L 80.2 143.8 L 81.8 143.7 L 83.4 143.6 L 85.0 143.5 L 86.6 143.4 L 88.2 143.2 L 89.8 143.1 L 91.5 143.0 L 93.1 142.8 L 94.7 142.7 L 96.3 142.5 L 97.9 142.4 L 99.5 142.2 L 101.1 142.0 L 102.7 141.9 L 104.3 141.7 L 105.9 141.5 L 107.5 141.3 L 109.1 141.2 L 110.8 141.0 L 112.4 140.8 L 114.0 140.6 L 115.6 140.4 L 117.2 140.2 L 118.8 139.9 L 120.4 139.7 L 122.0 139.5 L 123.6 139.3 L 125.2 139.0 L 126.8 138.8 L 128.4 138.6 L 130.1 138.3 L 131.7 138.1 L 133.3 137.8 L 134.9 137.6 L 136.5 137.3 L 138.1 137.0 L 139.7 136.8 L 141.3 136.5 L 142.9 136.2 L 144.5 135.9 L 146.1 135.7 L 147.7 135.4 L 149.3 135.1 L 151.0 134.8 L 152.6 134.5 L 154.2 134.1 L 155.8 133.8 L 157.4 133.5 L 159.0 133.2 L 160.6 132.9 L 162.2 132.5 L 163.8 132.2 L 165.4 131.9 L 167.0 131.5 L 168.6 131.2 L 170.3 130.8 L 171.9 130.5 L 173.5 130.1 L 175.1 129.7 L 176.7 129.4 L 178.3 129.0 L 179.9 128.6 L 181.5 128.2 L 183.1 127.8 L 184.7 127.4 L 186.3 127.0 L 187.9 126.6 L 189.5 126.2 L 191.2 125.8 L 192.8 125.4 L 194.4 125.0 L 196.0 124.6 L 197.6 124.1 L 199.2 123.7 L 200.8 123.3 L 202.4 122.8 L 204.0 122.4 L 205.6 121.9 L 207.2 121.5 L 208.8 121.0 L 210.5 120.5 L 212.1 120.1 L 213.7 119.6 L 215.3 119.1 L 216.9 118.6 L 218.5 118.2 L 220.1 117.7 L 221.7 117.2 L 223.3 116.7 L 224.9 116.2 L 226.5 115.7 L 228.1 115.2 L 229.7 114.6 L 231.4 114.1 L 233.0 113.6 L 234.6 113.1 L 236.2 112.5 L 237.8 112.0 L 239.4 111.5 L 241.0 110.9 L 242.6 110.4 L 244.2 109.8 L 245.8 109.2 L 247.4 108.7 L 249.0 108.1 L 250.7 107.5 L 252.3 107.0 L 253.9 106.4 L 255.5 105.8 L 257.1 105.2 L 258.7 104.6 L 260.3 104.0 L 261.9 103.4 L 263.5 102.8 L 265.1 102.2 L 266.7 101.6 L 268.3 100.9 L 269.9 100.3 L 271.6 99.7 L 273.2 99.1 L 274.8 98.4 L 276.4 97.8 L 278.0 97.1 L 279.6 96.5 L 281.2 95.8 L 282.8 95.2 L 284.4 94.5 L 286.0 93.8 L 287.6 93.1 L 289.2 92.5 L 290.9 91.8 L 292.5 91.1 L 294.1 90.4 L 295.7 89.7 L 297.3 89.0 L 298.9 88.3 L 300.5 87.6 L 302.1 86.9 L 303.7 86.2 L 305.3 85.4 L 306.9 84.7 L 308.5 84.0 L 310.2 83.2 L 311.8 82.5 L 313.4 81.8 L 315.0 81.0 L 316.6 80.3 L 318.2 79.5 L 319.8 78.7 L 321.4 78.0 L 323.0 77.2 L 324.6 76.4 L 326.2 75.6 L 327.8 74.9 L 329.4 74.1 L 331.1 73.3 L 332.7 72.5 L 334.3 71.7 L 335.9 70.9 L 337.5 70.1 L 339.1 69.3 L 340.7 68.4 L 342.3 67.6 L 343.9 66.8 L 345.5 65.9 L 347.1 65.1 L 348.7 64.3 L 350.4 63.4 L 352.0 62.6 L 353.6 61.7 L 355.2 60.9 L 356.8 60.0 L 358.4 59.1 L 360.0 58.3" fill="none" stroke="#58a6ff" stroke-width="2"/>
<path d="M 40.0 145.2 L 41.6 145.2 L 43.2 145.2 L 44.8 145.2 L 46.4 145.2 L 48.0 145.2 L 49.6 145.1 L 51.3 145.1 L 52.9 145.1 L 54.5 145.0 L 56.1 145.0 L 57.7 145.0 L 59.3 144.9 L 60.9 144.8 L 62.5 144.8 L 64.1 144.7 L 65.7 144.7 L 67.3 144.6 L 68.9 144.5 L 70.6 144.4 L 72.2 144.3 L 73.8 144.2 L 75.4 144.2 L 77.0 144.1 L 78.6 144.0 L 80.2 143.8 L 81.8 143.7 L 83.4 143.6 L 85.0 143.5 L 86.6 143.4 L 88.2 143.2 L 89.8 143.1 L 91.5 143.0 L 93.1 142.8 L 94.7 142.7 L 96.3 142.5 L 97.9 142.4 L 99.5 142.2 L 101.1 142.0 L 102.7 141.9 L 104.3 141.7 L 105.9 141.5 L 107.5 141.3 L 109.1 141.2 L 110.8 141.0 L 112.4 140.8 L 114.0 140.6 L 115.6 140.4 L 117.2 140.2 L 118.8 139.9 L 120.4 139.7 L 122.0 139.5 L 123.6 139.3 L 125.2 139.0 L 126.8 138.8 L 128.4 138.6 L 130.1 138.3 L 131.7 138.1 L 133.3 137.8 L 134.9 137.6 L 136.5 137.3 L 138.1 137.0 L 139.7 136.8 L 141.3 136.5 L 142.9 136.2 L 144.5 135.9 L 146.1 135.7 L 147.7 135.4 L 149.3 135.1 L 151.0 134.8 L 152.6 134.5 L 154.2 134.1 L 155.8 133.8 L 157.4 133.5 L 159.0 133.2 L 160.6 132.9 L 162.2 132.5 L 163.8 132.2 L 165.4 131.9 L 167.0 131.5 L 168.6 131.2 L 170.3 130.8 L 171.9 130.5 L 173.5 130.1 L 175.1 129.7 L 176.7 129.4 L 178.3 129.0 L 179.9 128.6 L 181.5 128.2 L 183.1 127.8 L 184.7 127.4 L 186.3 127.0 L 187.9 126.6 L 189.5 126.2 L 191.2 125.8 L 192.8 125.4 L 194.4 125.0 L 196.0 124.6 L 197.6 124.1 L 199.2 123.7 L 200.8 123.3 L 202.4 122.8 L 204.0 122.4 L 205.6 121.9 L 207.2 121.5 L 208.8 121.0 L 210.5 120.5 L 212.1 120.1 L 213.7 119.6 L 215.3 119.1 L 216.9 118.6 L 218.5 118.2 L 220.1 117.7 L 221.7 117.2 L 223.3 116.7 L 224.9 116.2 L 226.5 115.7 L 228.1 115.2 L 229.7 114.6 L 231.4 114.1 L 233.0 113.6 L 234.6 113.1 L 236.2 112.5 L 237.8 112.0 L 239.4 111.5 L 241.0 110.9 L 242.6 110.4 L 244.2 109.8 L 245.8 109.2 L 247.4 108.7 L 249.0 108.1 L 250.7 107.5 L 252.3 107.0 L 253.9 106.4 L 255.5 105.8 L 257.1 105.2 L 258.7 104.6 L 260.3 104.0 L 261.9 103.4 L 263.5 102.8 L 265.1 102.2 L 266.7 101.6 L 268.3 100.9 L 269.9 100.3 L 271.6 99.7 L 273.2 99.1 L 274.8 98.4 L 276.4 97.8 L 278.0 97.1 L 279.6 96.5 L 281.2 95.8 L 282.8 95.2 L 284.4 94.5 L 286.0 93.8 L 287.6 93.1 L 289.2 92.5 L 290.9 91.8 L 292.5 91.1 L 294.1 90.4 L 295.7 89.7 L 297.3 89.0 L 298.9 88.3 L 300.5 87.6 L 302.1 86.9 L 303.7 86.2 L 305.3 85.4 L 306.9 84.7 L 308.5 84.0 L 310.2 83.2 L 311.8 82.5 L 313.4 81.8 L 315.0 81.0 L 316.6 80.3 L 318.2 79.5 L 319.8 78.7 L 321.4 78.0 L 323.0 77.2 L 324.6 76.4 L 326.2 75.6 L 327.8 74.9 L 329.4 74.1 L 331.1 73.3 L 332.7 72.5 L 334.3 71.7 L 335.9 70.9 L 337.5 70.1 L 339.1 69.3 L 340.7 68.4 L 342.3 67.6 L 343.9 66.8 L 345.5 65.9 L 347.1 65.1 L 348.7 64.3 L 350.4 63.4 L 352.0 62.6 L 353.6 61.7 L 355.2 60.9 L 356.8 60.0 L 358.4 59.1 L 360.0 58.3 L 360.0 180.0 L 40.0 180.0 Z" fill="#58a6ff" opacity="0.12"/>
<text x="200" y="214" fill="#8b949e" font-size="9" text-anchor="middle">Rotation angle (°)</text>
<text x="12" y="110" fill="#8b949e" font-size="9" text-anchor="middle" transform="rotate(-90, 12, 110)">Mechanical Advantage</text>
<line x1="37" y1="145.2" x2="40" y2="145.2" stroke="#484f58" stroke-width="0.5"/>
<text x="35" y="148.2" fill="#8b949e" font-size="8" text-anchor="end">1.0</text>
<line x1="37" y1="58.3" x2="40" y2="58.3" stroke="#484f58" stroke-width="0.5"/>
<text x="35" y="61.3" fill="#8b949e" font-size="8" text-anchor="end">3.5</text>
<line x1="37" y1="101.7" x2="40" y2="101.7" stroke="#484f58" stroke-width="0.5"/>
<text x="35" y="104.7" fill="#8b949e" font-size="8" text-anchor="end">2.2</text>
<line x1="40.0" y1="180" x2="40.0" y2="183" stroke="#484f58" stroke-width="0.5"/>
<text x="40.0" y="194" fill="#8b949e" font-size="8" text-anchor="middle">20°</text>
<line x1="120.0" y1="180" x2="120.0" y2="183" stroke="#484f58" stroke-width="0.5"/>
<text x="120.0" y="194" fill="#8b949e" font-size="8" text-anchor="middle">35°</text>
<line x1="200.0" y1="180" x2="200.0" y2="183" stroke="#484f58" stroke-width="0.5"/>
<text x="200.0" y="194" fill="#8b949e" font-size="8" text-anchor="middle">50°</text>
<line x1="280.0" y1="180" x2="280.0" y2="183" stroke="#484f58" stroke-width="0.5"/>
<text x="280.0" y="194" fill="#8b949e" font-size="8" text-anchor="middle">65°</text>
<line x1="360.0" y1="180" x2="360.0" y2="183" stroke="#484f58" stroke-width="0.5"/>
<text x="360.0" y="194" fill="#8b949e" font-size="8" text-anchor="middle">80°</text>
</svg>